# xmcd CD database file
#
# Track frame offsets:
#        150
#        15482
#        34140
#        50329
#        64653
#        78527
#        95245
#        112485
#        127016
#        142011
#        157395
#        171582
#        183846
#        199614
#        211487
#        228625
#        243064
#        258965
#        272629
#        289450
#
# Disc length: 4079 seconds
#
# Revision: 0
# Processed by: cddbd v1.5.2PL0 Copyright (c) Steve Scherf et al.
# Submitted via: CUERipper 2.1.5
#
DISCID=390fed14
DTITLE=Linedance 1 - Linedance 1
DYEAR=1900
DGENRE=
TTITLE0=COUNTRY AS CAN BE - Brady Seals
TTITLE1=CANADIAN STOMP - Shania Twain
TTITLE2=TAG ON - Beccy Cole
TTITLE3=GO SEVEN - Bouke
TTITLE4=AMERICAN KIDS - Kenny Chesney
TTITLE5=ANYTHING FOR LOVE - James House
TTITLE6=WHITE ROSE - Tobey Keith
TTITLE7=DARLENE T. - Graham Brown
TTITLE8=HOLLY‘S CHURCH - Maren Morris
TTITLE9=LORD HELP ME - The Bellamy Brothers
TTITLE10=JOANA - Don Williams
TTITLE11=ALCOHOL - Gord Bamford
TTITLE12=GYPSY QUEEN - Chris Norman
TTITLE13=LONG PRIDE - CharIy Pride
TTITLE14=MISSING - William Michael Morgan
TTITLE15=HOLD - Matt Borden
TTITLE16=UNTAMED - Cam
TTITLE17=ROCKLAND - Sam Outlaw
TTITLE18=LONELY DRUM - Aaron Goodvin
TTITLE19=LEFT IN THE DARK - Sam Outlaw
EXTD=
EXTT0=
EXTT1=
EXTT2=
EXTT3=
EXTT4=
EXTT5=
EXTT6=
EXTT7=
EXTT8=
EXTT9=
EXTT10=
EXTT11=
EXTT12=
EXTT13=
EXTT14=
EXTT15=
EXTT16=
EXTT17=
EXTT18=
EXTT19=
PLAYORDER=
